<svg width="22" height="31" viewBox="0 0 22 31" fill="none" xmlns="http://www.w3.org/2000/svg"><path d="M2.582 28.791c.034.815.688 1.459 1.484 1.459h13.868c.796 0 1.451-.644 1.484-1.459l.99-21.425H1.593l.99 21.425zm11.555-16.104a.61.61 0 01.604-.618h.965a.61.61 0 01.603.618v12.241a.61.61 0 01-.603.619h-.965a.611.611 0 01-.604-.619v-12.24zm-4.222 0a.61.61 0 01.603-.618h.965a.61.61 0 01.603.618v12.241a.61.61 0 01-.603.619h-.965a.61.61 0 01-.603-.619v-12.24zm-4.223 0a.61.61 0 01.603-.618h.965a.61.61 0 01.603.618v12.241a.61.61 0 01-.603.619h-.965a.61.61 0 01-.604-.619v-12.24zM21.068 1.558H14.67V.318A.315.315 0 0014.36 0H7.64a.315.315 0 00-.31.319v1.24H.932A.944.944 0 000 2.513v3h22v-3a.944.944 0 00-.932-.956z" fill="#0F1440"/></svg>