<svg width="31" height="31" viewBox="0 0 31 31" fill="none" xmlns="http://www.w3.org/2000/svg"><path d="M29.238 18.034c-.42 0-.762.36-.762.804v7.14c-.001 1.332-1.024 2.412-2.286 2.413H4.81c-1.262-.001-2.285-1.08-2.286-2.412V5.02c.001-1.33 1.024-2.41 2.286-2.412h6.765c.421 0 .762-.36.762-.804 0-.444-.34-.804-.762-.804H4.81C2.707 1.003 1.002 2.801 1 5.021V25.98c.002 2.22 1.707 4.018 3.81 4.021h21.38c2.103-.003 3.808-1.801 3.81-4.021v-7.141c0-.444-.341-.804-.762-.804z" fill="#0F1440" stroke="#0F1440" stroke-width=".5"/><path d="M28.087 2.013a3.46 3.46 0 00-4.894 0L9.475 15.731a.769.769 0 00-.197.338l-1.804 6.512a.769.769 0 00.946.947l6.513-1.804a.769.769 0 00.338-.198L28.99 7.81a3.464 3.464 0 000-4.893l-.902-.903zM11.15 16.23L22.378 5.004l3.62 3.62-11.227 11.227-3.62-3.62zm-.723 1.452l2.893 2.892-4.001 1.109 1.108-4.001zm17.475-10.96l-.816.815-3.62-3.62.815-.816c.75-.75 1.968-.75 2.718 0l.903.902c.75.751.75 1.967 0 2.719z" fill="#0F1440" stroke="#0F1440" stroke-width=".5"/></svg>