<svg width="14" height="11" viewBox="0 0 14 11" fill="none" xmlns="http://www.w3.org/2000/svg"><path d="M12.62 1H2.056C1.474 1 1 1.474 1 2.056v7.395c0 .582.474 1.056 1.056 1.056H12.62c.582 0 1.056-.474 1.056-1.056V2.056c0-.582-.474-1.056-1.056-1.056zm-10.564.528H12.62c.039 0 .073.014.11.022-.915.837-3.947 3.612-5.009 4.568a.586.586 0 01-.383.164c-.166 0-.3-.09-.383-.165A1427.84 1427.84 0 011.946 1.55c.037-.008.071-.022.11-.022zm-.528 7.923V2.056c0-.051.016-.098.03-.146.7.641 2.816 2.577 4.188 3.824-1.368 1.175-3.484 3.182-4.19 3.854-.012-.045-.028-.088-.028-.137zm11.092.528H2.056c-.042 0-.08-.015-.119-.024.73-.695 2.86-2.713 4.203-3.863l.461.418c.218.196.472.3.737.3s.52-.104.737-.3l.461-.418C9.88 7.242 12.01 9.26 12.74 9.955c-.04.01-.077.024-.12.024zm.528-.528c0 .049-.015.092-.028.137-.706-.673-2.822-2.68-4.19-3.854a1682.22 1682.22 0 004.188-3.824c.014.048.03.095.03.146v7.395z" fill="#AEAEAE" stroke="#AEAEAE" stroke-width=".5"/></svg>