<svg width="12" height="12" viewBox="0 0 12 12" fill="none" xmlns="http://www.w3.org/2000/svg">
<path fill-rule="evenodd" clip-rule="evenodd" d="M6.82887 0.398075L10.6079 3.33739C11.0685 3.69523 11.3377 4.24582 11.3377 4.82901V9.93099C11.3377 10.3069 11.1884 10.6673 10.9227 10.9331C10.6569 11.1989 10.2964 11.3482 9.92053 11.3482H1.41722C1.04135 11.3482 0.680874 11.1989 0.415094 10.9331C0.149314 10.6673 2.09816e-07 10.3069 2.09816e-07 9.93099V4.82901C-0.000135422 4.54126 0.0654882 4.25728 0.19186 3.99877C0.318232 3.74025 0.50201 3.51403 0.729159 3.33739L4.50888 0.398075C4.84052 0.140076 5.2487 0 5.66887 0C6.08905 0 6.49723 0.140076 6.82887 0.398075ZM8.86923 8.43692C9.22391 8.22299 9.33802 7.76202 9.12408 7.40734C8.91014 7.05265 8.44918 6.93854 8.09449 7.15248C7.45475 7.53835 6.57073 7.75313 5.64689 7.75313C4.72302 7.75313 3.8395 7.53834 3.20061 7.15264C2.84601 6.93856 2.385 7.05248 2.17092 7.40708C1.95684 7.76168 2.07076 8.22269 2.42536 8.43677C3.35108 8.99564 4.51898 9.25313 5.64689 9.25313C6.77483 9.25313 7.94294 8.99563 8.86923 8.43692Z" fill="#35580F"/>
</svg>
