<svg width="63" height="63" viewBox="0 0 63 63" fill="none" xmlns="http://www.w3.org/2000/svg">
<g filter="url(#filter0_d_74_967)">
<circle cx="31.5" cy="18.5" r="13.5" fill="white"/>
</g>
<path d="M31.5 5C24.0441 5 18 11.0441 18 18.5C18 25.9559 24.0441 32 31.5 32C38.9559 32 45 25.9559 45 18.5C45 11.0441 38.9559 5 31.5 5ZM34.6978 14.3291H32.6686C32.4281 14.3291 32.1609 14.6455 32.1609 15.0659V16.5313H34.6992L34.3153 18.6209H32.1609V24.8942H29.7661V18.6209H27.5934V16.5313H29.7661V15.3022C29.7661 13.5387 30.9895 12.1058 32.6686 12.1058H34.6978V14.3291Z" fill="#80A687"/>
<defs>
<filter id="filter0_d_74_967" x="0" y="0" width="63" height="63" filterUnits="userSpaceOnUse" color-interpolation-filters="sRGB">
<feFlood flood-opacity="0" result="BackgroundImageFix"/>
<feColorMatrix in="SourceAlpha" type="matrix" values="0 0 0 0 0 0 0 0 0 0 0 0 0 0 0 0 0 0 127 0" result="hardAlpha"/>
<feOffset dy="13"/>
<feGaussianBlur stdDeviation="9"/>
<feColorMatrix type="matrix" values="0 0 0 0 0.0658854 0 0 0 0 0.0730469 0 0 0 0 0.1375 0 0 0 0.08 0"/>
<feBlend mode="normal" in2="BackgroundImageFix" result="effect1_dropShadow_74_967"/>
<feBlend mode="normal" in="SourceGraphic" in2="effect1_dropShadow_74_967" result="shape"/>
</filter>
</defs>
</svg>
