<svg width="168" height="22" viewBox="0 0 168 22" fill="none" xmlns="http://www.w3.org/2000/svg">
<path d="M23.3404 9.19869C19.8786 6.31153 16.4168 3.41502 12.941 0.541884C12.6 0.323302 12.2366 0.141678 11.8572 0C11.4547 0.17459 11.0698 0.387343 10.7079 0.635354C9.10083 1.94345 7.51711 3.27958 5.92403 4.60636L0.416 9.19401C0.0983193 9.4603 -0.196016 9.76863 0.168382 10.1751C1.29428 11.4505 2.0651 10.4787 2.36877 10.2358C2.83594 9.85272 4.48509 8.582 4.95227 8.19425C7.8768 5.75558 8.22249 5.26508 11.1283 2.80306C11.3866 2.62452 11.6949 2.53238 12.0089 2.53993C12.3228 2.54749 12.6262 2.65433 12.8756 2.84509C16.2299 5.64815 18.4817 7.76911 21.8687 10.5815C22.1864 10.8525 22.8452 10.3246 23.2002 9.90881C23.5553 9.49302 23.6534 9.46498 23.3404 9.19869Z" fill="white"/>
<path d="M18.9302 11.5722C18.4797 12.2255 18.1885 12.9752 18.0798 13.7613C17.9711 14.5474 18.048 15.3481 18.3043 16.0992C18.3733 16.3853 18.5382 16.6392 18.7715 16.8186C19.9114 17.5054 19.4629 18.5799 19.3882 19.4955C19.3321 20.1683 18.7294 20.5467 17.9866 20.5514C17.0523 20.5514 16.1179 20.5514 15.1228 20.5514V19.0424C15.1228 19.0424 16.9915 17.9632 16.0571 16.4869C15.8558 16.1372 15.5522 15.8576 15.1872 15.6856C14.8223 15.5135 14.4135 15.4573 14.0156 15.5245C13.6372 15.5806 14.2072 14.9312 12.6141 14.5154C12.3941 14.4528 12.1648 14.4291 11.9366 14.4453C11.71 14.4293 11.4823 14.453 11.2639 14.5154C9.68016 14.9312 10.2548 15.5806 9.86236 15.5245C9.46447 15.4567 9.0553 15.5126 8.6902 15.6847C8.3251 15.8568 8.02171 16.1368 7.82086 16.4869C6.86315 17.9632 8.75521 19.0424 8.75521 19.0424V20.556H6.39595C4.84959 20.556 4.43382 20.1496 4.42915 18.6266C4.39866 18.3846 4.39866 18.1397 4.42915 17.8978C4.52983 17.6365 4.65652 17.3861 4.80748 17.1503C5.01303 16.7672 5.40547 16.3795 5.4008 15.9964C5.4008 14.4407 5.27474 11.1985 5.25139 11.1331H4.8823V15.632H4.52256V11.0303H4.1675V15.5946H3.8965C3.82176 14.109 3.76104 12.6234 3.68162 11.1377H3.41997C3.34523 12.6187 3.42003 14.1043 3.3593 15.5853H3.13038C3.06031 14.151 3.04158 12.5907 2.97618 11.1564H2.72856C2.66316 12.6187 2.72861 14.2071 2.66321 15.6693H2.40624C2.33616 14.165 2.33147 12.6561 2.26606 11.1471H2.06521C2.01382 12.3244 1.97642 13.4829 1.92035 14.6742C1.93637 15.0146 1.91922 15.3557 1.86903 15.6927C1.77375 15.9994 1.79545 16.3306 1.93005 16.6222C2.06465 16.9138 2.30251 17.1453 2.59774 17.2718C2.69208 17.3409 2.77173 17.4281 2.8319 17.5284C2.89206 17.6287 2.93154 17.74 2.94812 17.8557C2.96548 18.5339 3.01854 19.2107 3.107 19.8833C3.2486 20.4953 3.59673 21.0399 4.0928 21.4254C4.58886 21.8108 5.20262 22.0136 5.83068 21.9996C6.78839 21.9996 7.75077 21.9996 8.74118 21.9996H15.0994V21.9762C16.2206 21.9762 17.3232 22.037 18.407 21.9482C19.0658 21.8579 19.6719 21.5389 20.1194 21.047C20.5669 20.5551 20.8273 19.9217 20.8551 19.2573C20.8737 18.9898 20.8737 18.7213 20.8551 18.4537C20.8058 18.165 20.8409 17.8682 20.9561 17.5989C21.0713 17.3296 21.2616 17.0993 21.5044 16.9354C21.9731 16.4598 22.2706 15.8419 22.35 15.1788C22.4698 14.5677 22.4663 13.9387 22.3395 13.329C22.2127 12.7193 21.9653 12.141 21.6118 11.6282C20.9251 10.5631 19.673 10.507 18.9302 11.5722Z" fill="white"/>
<path d="M34 6.33203H35.3561V11.9121H42.1263V6.33203H43.4627V19.648H42.1263V13.2095H35.3561V19.648H34V6.33203Z" fill="white" stroke="white" stroke-miterlimit="10"/>
<path d="M46.0183 14.7901C46.0065 14.1037 46.1326 13.422 46.3889 12.7853C46.6453 12.1485 47.0269 11.5698 47.5109 11.0831C47.9764 10.5865 48.5405 10.1928 49.1672 9.92738C49.7938 9.66193 50.4692 9.53051 51.1497 9.54167C51.8285 9.53188 52.5021 9.664 53.1269 9.92941C53.7518 10.1948 54.3143 10.5878 54.7786 11.0831C55.2617 11.5665 55.6428 12.142 55.8992 12.7754C56.1556 13.4088 56.2821 14.0873 56.2712 14.7705C56.2839 15.4509 56.1601 16.127 55.9071 16.7587C55.6541 17.3903 55.277 17.9648 54.7982 18.4483C54.3319 18.9431 53.7674 19.3351 53.1408 19.5988C52.5141 19.8626 51.8392 19.9924 51.1594 19.98C50.4764 19.9951 49.7978 19.8666 49.1676 19.6027C48.5374 19.3389 47.9697 18.9456 47.5012 18.4483C47.0216 17.9689 46.6432 17.3981 46.3885 16.7697C46.1337 16.1413 46.0079 15.4681 46.0183 14.7901ZM54.9932 14.7901C54.9994 14.2665 54.9019 13.7469 54.706 13.2613C54.5101 12.7757 54.2198 12.3337 53.8519 11.961C53.5121 11.5811 53.0955 11.2777 52.6297 11.0708C52.1638 10.864 51.6594 10.7584 51.1497 10.7611C50.64 10.7584 50.1355 10.864 49.6697 11.0708C49.2039 11.2777 48.7872 11.5811 48.4474 11.961C47.7087 12.7238 47.302 13.7479 47.3159 14.8096C47.3039 15.3253 47.3941 15.8383 47.5817 16.3189C47.7692 16.7994 48.0502 17.2381 48.4084 17.6094C48.7559 17.9815 49.1779 18.2762 49.6468 18.4745C50.1158 18.6729 50.6211 18.7704 51.1301 18.7606C51.6429 18.77 52.1519 18.6716 52.6242 18.4716C53.0964 18.2716 53.5214 17.9745 53.8715 17.5996C54.2407 17.2351 54.5336 16.8007 54.7329 16.3216C54.9323 15.8425 55.034 15.3285 55.0323 14.8096L54.9932 14.7901Z" fill="white" stroke="white" stroke-miterlimit="10"/>
<path d="M58.6328 9.8051H59.9108V11.5025C60.253 10.9099 60.745 10.4178 61.3375 10.0753C61.9299 9.73285 62.6019 9.55215 63.2861 9.55145C63.9875 9.53941 64.6732 9.75886 65.2372 10.1758C65.822 10.599 66.2342 11.2191 66.3981 11.9221C66.7596 11.2129 67.2971 10.6082 67.959 10.166C68.6076 9.75102 69.3645 9.53718 70.1344 9.55145C70.5529 9.55754 70.966 9.64701 71.3496 9.81451C71.7331 9.982 72.0795 10.2242 72.3685 10.527C73.0416 11.1611 73.344 12.4195 73.344 14.3023V19.6775H72.0465V14.3023C72.063 13.6478 72.0074 12.9935 71.8807 12.3512C71.7629 11.9247 71.5095 11.548 71.1588 11.2782C70.7319 10.9688 70.2124 10.8141 69.6857 10.8392C69.06 10.8421 68.4542 11.059 67.9688 11.4538C67.4469 11.8438 67.0638 12.3909 66.8761 13.0147C66.6366 13.9476 66.5349 14.9105 66.5738 15.8729V19.7751H65.3349V14.7316C65.3583 13.9767 65.3026 13.2214 65.1689 12.4781C65.0542 12.029 64.7933 11.6309 64.4274 11.3464C64.0221 11.0365 63.523 10.8748 63.013 10.8879C62.4539 10.8895 61.9091 11.0633 61.4522 11.3855C60.9512 11.7189 60.5525 12.185 60.3009 12.7317C59.9613 13.6477 59.8184 14.625 59.8815 15.5999V19.7751H58.623L58.6328 9.8051Z" fill="white" stroke="white" stroke-miterlimit="10"/>
<path d="M84.2992 16.457L85.3821 17.0131C84.9657 17.9057 84.2983 18.6577 83.4616 19.1774C82.6248 19.6971 81.6549 19.962 80.6702 19.9397C79.9849 19.9612 79.3028 19.8357 78.6701 19.5715C78.0374 19.3073 77.4687 18.9105 77.0022 18.408C76.5296 17.921 76.1577 17.3455 75.9083 16.7143C75.6588 16.0831 75.5367 15.4089 75.5487 14.7304C75.5262 13.3573 76.0489 12.0313 77.0022 11.0428C77.4594 10.5463 78.0165 10.1523 78.637 9.88661C79.2574 9.62094 79.927 9.48971 80.6019 9.50149C81.2668 9.48519 81.9281 9.60285 82.5465 9.84755C83.165 10.0922 83.7278 10.4589 84.2015 10.9257C84.699 11.4439 85.0888 12.0555 85.3483 12.7253C85.6079 13.3951 85.7321 14.1098 85.7137 14.8279H76.8462C76.8355 15.8901 77.2376 16.9148 77.968 17.6861C78.3014 18.0344 78.7031 18.3103 79.1479 18.4966C79.5926 18.6829 80.0709 18.7758 80.553 18.7691C81.3354 18.7937 82.1079 18.5875 82.774 18.1764C83.4401 17.7653 83.9704 17.1673 84.2992 16.457ZM84.2992 13.7646C84.1658 12.8903 83.7012 12.1009 83.0017 11.5599C82.3179 11.0315 81.4757 10.7495 80.6116 10.7599C78.7581 10.7599 77.5485 11.7615 76.9827 13.7646H84.2992Z" fill="white" stroke="white" stroke-miterlimit="10"/>
<path d="M87.6836 19.648L89.5761 6.33203H89.7811L95.1952 17.258L100.57 6.33203H100.775L102.726 19.648H101.409L100.112 10.117L95.4 19.648H95.0294L90.2689 10.039L88.9714 19.648H87.6836Z" fill="white" stroke="white" stroke-miterlimit="10"/>
<path d="M114.93 9.80482V19.648H113.682V17.9798C113.236 18.5884 112.657 19.0869 111.989 19.4369C111.321 19.787 110.582 19.9793 109.828 19.9991C109.142 20.0132 108.461 19.8824 107.829 19.6151C107.197 19.3478 106.628 18.9501 106.16 18.4481C105.677 17.9647 105.296 17.3892 105.04 16.7558C104.783 16.1223 104.657 15.4438 104.668 14.7605C104.659 14.0796 104.788 13.4039 105.046 12.7737C105.304 12.1435 105.686 11.5717 106.17 11.0925C106.632 10.6026 107.19 10.2137 107.81 9.95011C108.429 9.68651 109.097 9.55397 109.77 9.56094C110.54 9.55089 111.301 9.73405 111.983 10.0936C112.664 10.4532 113.245 10.9776 113.672 11.6193V9.82435L114.93 9.80482ZM113.76 14.7703C113.773 14.2437 113.68 13.7198 113.485 13.2303C113.291 12.7407 112.999 12.2956 112.628 11.9218C112.272 11.5466 111.842 11.2496 111.365 11.0497C110.888 10.8499 110.375 10.7515 109.858 10.7608C109.337 10.7522 108.821 10.8547 108.343 11.0616C107.865 11.2686 107.437 11.5751 107.087 11.9607C106.718 12.3323 106.428 12.7743 106.234 13.2603C106.039 13.7463 105.945 14.2665 105.955 14.7898C105.95 15.3133 106.048 15.8328 106.244 16.3184C106.439 16.8039 106.73 17.2459 107.097 17.6189C107.448 18 107.875 18.303 108.35 18.5081C108.826 18.7132 109.34 18.8157 109.858 18.809C110.369 18.8147 110.877 18.7165 111.35 18.5204C111.823 18.3242 112.251 18.0341 112.609 17.6677C112.989 17.2898 113.288 16.8375 113.486 16.339C113.684 15.8405 113.777 15.3064 113.76 14.7703Z" fill="white" stroke="white" stroke-miterlimit="10"/>
<path d="M127.613 6V19.6575H126.364V17.9796C125.914 18.5941 125.327 19.0961 124.65 19.4464C123.973 19.7967 123.224 19.9858 122.462 19.9989C121.779 20.0128 121.099 19.8828 120.469 19.6173C119.839 19.3517 119.272 18.9567 118.804 18.4576C118.322 17.9738 117.943 17.398 117.688 16.7645C117.433 16.131 117.309 15.4527 117.321 14.7701C117.309 14.0872 117.436 13.409 117.694 12.7767C117.952 12.1445 118.337 11.5713 118.823 11.0923C119.284 10.6036 119.841 10.2154 120.459 9.95181C121.076 9.68826 121.742 9.55512 122.413 9.56074C123.184 9.55069 123.945 9.73385 124.627 10.0934C125.308 10.453 125.889 10.9774 126.316 11.6191V6.01953L127.613 6ZM126.442 14.7798C126.454 14.2537 126.362 13.7303 126.171 13.2398C125.98 12.7494 125.695 12.3014 125.33 11.9216C124.976 11.541 124.545 11.2399 124.066 11.0381C123.586 10.8363 123.07 10.7384 122.55 10.7509C122.026 10.7394 121.506 10.8406 121.024 11.0476C120.543 11.2546 120.112 11.5626 119.76 11.9508C119.028 12.7049 118.624 13.7188 118.638 14.7701C118.633 15.2944 118.732 15.8144 118.93 16.3001C119.128 16.7857 119.42 17.2273 119.789 17.5992C120.131 17.9793 120.549 18.2829 121.017 18.4897C121.484 18.6965 121.99 18.8019 122.501 18.7991C123.014 18.7995 123.521 18.6989 123.995 18.503C124.469 18.3072 124.899 18.02 125.262 17.6577C125.649 17.2894 125.954 16.8435 126.158 16.3494C126.361 15.8552 126.458 15.3238 126.442 14.7896V14.7798Z" fill="white" stroke="white" stroke-miterlimit="10"/>
<path d="M138.773 16.4568L139.846 17.0129C139.43 17.9039 138.765 18.6549 137.93 19.1745C137.095 19.6941 136.127 19.9599 135.144 19.9395C134.458 19.9574 133.775 19.8302 133.142 19.5663C132.508 19.3024 131.937 18.9076 131.466 18.4078C130.995 17.9203 130.625 17.3445 130.377 16.7133C130.129 16.0821 130.009 15.4081 130.023 14.7302C130 13.3571 130.523 12.0311 131.476 11.0426C131.933 10.5461 132.49 10.1521 133.111 9.88642C133.731 9.62075 134.401 9.48952 135.076 9.5013C135.741 9.48611 136.401 9.60427 137.02 9.84891C137.638 10.0935 138.201 10.4596 138.675 10.9255C139.173 11.4437 139.563 12.0554 139.822 12.7251C140.082 13.3949 140.206 14.1096 140.188 14.8277H131.32C131.309 15.8899 131.712 16.9146 132.442 17.686C132.775 18.0352 133.176 18.3117 133.621 18.4981C134.066 18.6845 134.545 18.7767 135.027 18.7689C135.809 18.7922 136.581 18.5855 137.247 18.1746C137.913 17.7636 138.443 17.1663 138.773 16.4568ZM138.773 13.7644C138.636 12.8915 138.172 12.1034 137.476 11.5597C136.789 11.036 135.949 10.7546 135.086 10.7597C133.232 10.7597 132.019 11.7613 131.447 13.7644H138.773Z" fill="white" stroke="white" stroke-miterlimit="10"/>
<path d="M142.558 6.33203H143.894V19.648H142.558V6.33203Z" fill="white" stroke="white" stroke-miterlimit="10"/>
<path d="M146.733 9.80443H148.011V11.5604C148.415 10.9489 148.962 10.4453 149.605 10.0933C150.247 9.74139 150.966 9.55174 151.699 9.54102C152.395 9.54427 153.074 9.75484 153.65 10.1458C154.226 10.5249 154.669 11.0739 154.918 11.7164C155.203 12.6447 155.328 13.6145 155.289 14.5846V19.6476H154.021V14.9553C154.052 14.1748 154 13.3931 153.865 12.6237C153.776 12.2477 153.613 11.8928 153.387 11.5799C153.17 11.2978 152.884 11.0762 152.557 10.9361C152.175 10.7741 151.762 10.6975 151.348 10.7117C150.858 10.7145 150.376 10.8349 149.943 11.0629C149.485 11.2966 149.085 11.6299 148.772 12.0384C148.468 12.4204 148.249 12.8626 148.128 13.3359C147.981 14.2221 147.926 15.121 147.963 16.0186V19.6378H146.733V9.80443Z" fill="white" stroke="white" stroke-miterlimit="10"/>
<path d="M158.04 9.80443H159.318V11.5604C159.723 10.9482 160.272 10.4441 160.916 10.0921C161.561 9.7402 162.281 9.551 163.015 9.54102C163.711 9.54544 164.39 9.75591 164.966 10.1458C165.541 10.523 165.982 11.0729 166.225 11.7164C166.509 12.6447 166.635 13.6145 166.596 14.5846V19.6476H165.337V14.9553C165.363 14.1749 165.31 13.3938 165.181 12.6237C165.089 12.2469 164.923 11.892 164.693 11.5799C164.48 11.2982 164.198 11.0765 163.874 10.9361C163.488 10.7751 163.072 10.6986 162.654 10.7117C162.168 10.7133 161.689 10.8339 161.259 11.0629C160.801 11.2966 160.401 11.6299 160.089 12.0384C159.785 12.4223 159.563 12.8637 159.435 13.3359C159.293 14.2226 159.238 15.1211 159.269 16.0186V19.6378H157.991L158.04 9.80443Z" fill="white" stroke="white" stroke-miterlimit="10"/>
</svg>
