<svg width="168" height="22" viewBox="0 0 168 22" fill="none" xmlns="http://www.w3.org/2000/svg">
<path d="M34 6.33203H35.3561V11.9121H42.1263V6.33203H43.4627V19.648H42.1263V13.2095H35.3561V19.648H34V6.33203Z" fill="#333333" stroke="#333333" stroke-miterlimit="10"/>
<path d="M46.0183 14.7891C46.0065 14.1028 46.1326 13.4211 46.3889 12.7843C46.6453 12.1476 47.0269 11.5688 47.5109 11.0821C47.9764 10.5856 48.5405 10.1919 49.1672 9.92641C49.7938 9.66095 50.4692 9.52954 51.1497 9.54069C51.8285 9.5309 52.5021 9.66302 53.1269 9.92843C53.7518 10.1938 54.3143 10.5868 54.7786 11.0821C55.2617 11.5655 55.6428 12.141 55.8992 12.7744C56.1556 13.4079 56.2821 14.0863 56.2712 14.7696C56.2839 15.4499 56.1601 16.126 55.9071 16.7577C55.6541 17.3894 55.277 17.9638 54.7982 18.4474C54.3319 18.9421 53.7674 19.3341 53.1408 19.5978C52.5141 19.8616 51.8392 19.9914 51.1594 19.979C50.4764 19.9942 49.7978 19.8656 49.1676 19.6018C48.5374 19.3379 47.9697 18.9446 47.5012 18.4474C47.0216 17.968 46.6432 17.3972 46.3885 16.7687C46.1337 16.1403 46.0079 15.4671 46.0183 14.7891V14.7891ZM54.9932 14.7891C54.9994 14.2655 54.9019 13.7459 54.706 13.2603C54.5101 12.7747 54.2198 12.3327 53.8519 11.96C53.5121 11.5801 53.0955 11.2767 52.6297 11.0699C52.1638 10.863 51.6594 10.7574 51.1497 10.7601C50.64 10.7574 50.1355 10.863 49.6697 11.0699C49.2039 11.2767 48.7872 11.5801 48.4474 11.96C47.7087 12.7228 47.302 13.7469 47.3159 14.8086C47.3039 15.3244 47.3941 15.8373 47.5817 16.3179C47.7692 16.7985 48.0502 17.2371 48.4084 17.6084C48.7559 17.9805 49.1779 18.2752 49.6468 18.4736C50.1158 18.6719 50.6211 18.7694 51.1301 18.7596C51.6429 18.7691 52.1519 18.6706 52.6242 18.4706C53.0964 18.2706 53.5214 17.9735 53.8715 17.5986C54.2407 17.2341 54.5336 16.7997 54.7329 16.3206C54.9323 15.8416 55.034 15.3275 55.0323 14.8086L54.9932 14.7891Z" fill="#333333" stroke="#333333" stroke-miterlimit="10"/>
<path d="M58.6328 9.80412H59.9108V11.5016C60.253 10.9089 60.745 10.4168 61.3375 10.0743C61.9299 9.73188 62.6019 9.55118 63.2861 9.55048C63.9875 9.53843 64.6732 9.75788 65.2372 10.1748C65.822 10.598 66.2342 11.2181 66.3981 11.9211C66.7596 11.2119 67.2971 10.6073 67.959 10.1651C68.6076 9.75005 69.3645 9.5362 70.1344 9.55048C70.5529 9.55656 70.966 9.64604 71.3496 9.81353C71.7331 9.98103 72.0795 10.2232 72.3685 10.526C73.0416 11.1601 73.344 12.4186 73.344 14.3013V19.6766H72.0465V14.3013C72.063 13.6469 72.0074 12.9926 71.8807 12.3503C71.7629 11.9237 71.5095 11.5471 71.1588 11.2772C70.7319 10.9679 70.2124 10.8131 69.6857 10.8383C69.06 10.8412 68.4542 11.058 67.9688 11.4528C67.4469 11.8428 67.0638 12.3899 66.8761 13.0137C66.6366 13.9467 66.5349 14.9095 66.5738 15.8719V19.7741H65.3349V14.7306C65.3583 13.9757 65.3026 13.2204 65.1689 12.4771C65.0542 12.028 64.7933 11.6299 64.4274 11.3454C64.0221 11.0356 63.523 10.8738 63.013 10.887C62.4539 10.8886 61.9091 11.0623 61.4522 11.3845C60.9512 11.7179 60.5525 12.184 60.3009 12.7307C59.9613 13.6467 59.8184 14.624 59.8815 15.5989V19.7741H58.623L58.6328 9.80412Z" fill="#333333" stroke="#333333" stroke-miterlimit="10"/>
<path d="M84.2992 16.4579L85.3821 17.0141C84.9657 17.9067 84.2983 18.6587 83.4616 19.1784C82.6248 19.6981 81.6549 19.963 80.6702 19.9407C79.9849 19.9622 79.3028 19.8367 78.6701 19.5725C78.0374 19.3083 77.4687 18.9115 77.0022 18.409C76.5296 17.922 76.1577 17.3464 75.9083 16.7153C75.6588 16.0841 75.5367 15.4099 75.5487 14.7313C75.5262 13.3583 76.0489 12.0322 77.0022 11.0438C77.4594 10.5473 78.0165 10.1532 78.637 9.88758C79.2574 9.62192 79.927 9.49069 80.6019 9.50246C81.2668 9.48617 81.9281 9.60383 82.5465 9.84852C83.165 10.0932 83.7278 10.4599 84.2015 10.9267C84.699 11.4449 85.0888 12.0565 85.3483 12.7263C85.6079 13.3961 85.7321 14.1108 85.7137 14.8289H76.8462C76.8355 15.891 77.2376 16.9158 77.968 17.6871C78.3014 18.0354 78.7031 18.3113 79.1479 18.4976C79.5926 18.6839 80.0709 18.7767 80.553 18.7701C81.3354 18.7946 82.1079 18.5885 82.774 18.1774C83.4401 17.7663 83.9704 17.1683 84.2992 16.4579ZM84.2992 13.7656C84.1658 12.8913 83.7012 12.1019 83.0017 11.5608C82.3179 11.0325 81.4757 10.7505 80.6116 10.7608C78.7581 10.7608 77.5485 11.7625 76.9827 13.7656H84.2992Z" fill="#333333" stroke="#333333" stroke-miterlimit="10"/>
<path d="M87.6836 19.648L89.5761 6.33203H89.7811L95.1952 17.258L100.57 6.33203H100.775L102.726 19.648H101.409L100.112 10.117L95.4 19.648H95.0294L90.2689 10.039L88.9714 19.648H87.6836Z" fill="#333333" stroke="#333333" stroke-miterlimit="10"/>
<path d="M114.93 9.80482V19.648H113.682V17.9798C113.236 18.5884 112.657 19.0869 111.989 19.4369C111.321 19.787 110.582 19.9793 109.828 19.9991C109.142 20.0132 108.461 19.8824 107.829 19.6151C107.197 19.3478 106.628 18.9501 106.16 18.4481C105.677 17.9647 105.296 17.3892 105.04 16.7558C104.783 16.1223 104.657 15.4438 104.668 14.7605C104.659 14.0796 104.788 13.4039 105.046 12.7737C105.304 12.1435 105.686 11.5717 106.17 11.0925C106.632 10.6026 107.19 10.2137 107.81 9.95011C108.429 9.68651 109.097 9.55397 109.77 9.56094C110.54 9.55089 111.301 9.73405 111.983 10.0936C112.664 10.4532 113.245 10.9776 113.672 11.6193V9.82435L114.93 9.80482ZM113.76 14.7703C113.773 14.2437 113.68 13.7198 113.485 13.2303C113.291 12.7407 112.999 12.2956 112.628 11.9218C112.272 11.5466 111.842 11.2496 111.365 11.0497C110.888 10.8499 110.375 10.7515 109.858 10.7608C109.337 10.7522 108.821 10.8547 108.343 11.0616C107.865 11.2686 107.437 11.5751 107.087 11.9607C106.718 12.3323 106.428 12.7743 106.234 13.2603C106.039 13.7463 105.945 14.2665 105.955 14.7898C105.95 15.3133 106.048 15.8328 106.244 16.3184C106.439 16.8039 106.73 17.2459 107.097 17.6189C107.448 18 107.875 18.303 108.35 18.5081C108.826 18.7132 109.34 18.8157 109.858 18.809C110.369 18.8147 110.877 18.7165 111.35 18.5204C111.823 18.3242 112.251 18.0341 112.609 17.6677C112.989 17.2898 113.288 16.8375 113.486 16.339C113.684 15.8405 113.777 15.3064 113.76 14.7703V14.7703Z" fill="#333333" stroke="#333333" stroke-miterlimit="10"/>
<path d="M127.613 6V19.6575H126.364V17.9796C125.914 18.5941 125.327 19.0961 124.65 19.4464C123.973 19.7967 123.224 19.9858 122.462 19.9989C121.779 20.0128 121.099 19.8828 120.469 19.6173C119.839 19.3517 119.272 18.9567 118.804 18.4576C118.322 17.9738 117.943 17.398 117.688 16.7645C117.433 16.131 117.309 15.4527 117.321 14.7701C117.309 14.0872 117.436 13.409 117.694 12.7767C117.952 12.1445 118.337 11.5713 118.823 11.0923C119.284 10.6036 119.841 10.2154 120.459 9.95181C121.076 9.68826 121.742 9.55512 122.413 9.56074C123.184 9.55069 123.945 9.73385 124.627 10.0934C125.308 10.453 125.889 10.9774 126.316 11.6191V6.01953L127.613 6ZM126.442 14.7798C126.454 14.2537 126.362 13.7303 126.171 13.2398C125.98 12.7494 125.695 12.3014 125.33 11.9216C124.976 11.541 124.545 11.2399 124.066 11.0381C123.586 10.8363 123.07 10.7384 122.55 10.7509C122.026 10.7394 121.506 10.8406 121.024 11.0476C120.543 11.2546 120.112 11.5626 119.76 11.9508C119.028 12.7049 118.624 13.7188 118.638 14.7701C118.633 15.2944 118.732 15.8144 118.93 16.3001C119.128 16.7857 119.42 17.2273 119.789 17.5992C120.131 17.9793 120.549 18.2829 121.017 18.4897C121.484 18.6965 121.99 18.8019 122.501 18.7991C123.014 18.7995 123.521 18.6989 123.995 18.503C124.469 18.3072 124.899 18.02 125.262 17.6577C125.649 17.2894 125.954 16.8435 126.158 16.3494C126.361 15.8552 126.458 15.3238 126.442 14.7896V14.7798Z" fill="#333333" stroke="#333333" stroke-miterlimit="10"/>
<path d="M138.773 16.4577L139.846 17.0139C139.43 17.9049 138.765 18.6559 137.93 19.1755C137.095 19.6951 136.127 19.9609 135.144 19.9405C134.458 19.9584 133.775 19.8312 133.142 19.5673C132.508 19.3033 131.937 18.9086 131.466 18.4088C130.995 17.9213 130.625 17.3454 130.377 16.7143C130.129 16.0831 130.009 15.4091 130.023 14.7311C130 13.3581 130.523 12.032 131.476 11.0436C131.933 10.5471 132.49 10.1531 133.111 9.88739C133.731 9.62173 134.401 9.4905 135.076 9.50227C135.741 9.48709 136.401 9.60525 137.02 9.84988C137.638 10.0945 138.201 10.4606 138.675 10.9265C139.173 11.4447 139.563 12.0563 139.822 12.7261C140.082 13.3959 140.206 14.1106 140.188 14.8287H131.32C131.309 15.8909 131.712 16.9156 132.442 17.6869C132.775 18.0362 133.176 18.3127 133.621 18.4991C134.066 18.6855 134.545 18.7777 135.027 18.7699C135.809 18.7932 136.581 18.5865 137.247 18.1755C137.913 17.7646 138.443 17.1673 138.773 16.4577V16.4577ZM138.773 13.7654C138.636 12.8925 138.172 12.1043 137.476 11.5606C136.789 11.037 135.949 10.7556 135.086 10.7606C133.232 10.7606 132.019 11.7623 131.447 13.7654H138.773Z" fill="#333333" stroke="#333333" stroke-miterlimit="10"/>
<path d="M142.558 6.33203H143.894V19.648H142.558V6.33203Z" fill="#333333" stroke="#333333" stroke-miterlimit="10"/>
<path d="M146.733 9.80443H148.011V11.5604C148.415 10.9489 148.962 10.4453 149.605 10.0933C150.247 9.74139 150.966 9.55174 151.699 9.54102C152.395 9.54427 153.074 9.75484 153.65 10.1458C154.226 10.5249 154.669 11.0739 154.918 11.7164C155.203 12.6447 155.328 13.6145 155.289 14.5846V19.6476H154.021V14.9553C154.052 14.1748 154 13.3931 153.865 12.6237C153.776 12.2477 153.613 11.8928 153.387 11.5799C153.17 11.2978 152.884 11.0762 152.557 10.9361C152.175 10.7741 151.762 10.6975 151.348 10.7117C150.858 10.7145 150.376 10.8349 149.943 11.0629C149.485 11.2966 149.085 11.6299 148.772 12.0384C148.468 12.4204 148.249 12.8626 148.128 13.3359C147.981 14.2221 147.926 15.121 147.963 16.0186V19.6378H146.733V9.80443Z" fill="#333333" stroke="#333333" stroke-miterlimit="10"/>
<path d="M158.04 9.80443H159.318V11.5604C159.723 10.9482 160.272 10.4441 160.916 10.0921C161.561 9.7402 162.281 9.551 163.015 9.54102C163.711 9.54544 164.39 9.75591 164.966 10.1458C165.541 10.523 165.982 11.0729 166.225 11.7164C166.509 12.6447 166.635 13.6145 166.596 14.5846V19.6476H165.337V14.9553C165.363 14.1749 165.31 13.3938 165.181 12.6237C165.089 12.2469 164.923 11.892 164.693 11.5799C164.48 11.2982 164.198 11.0765 163.874 10.9361C163.488 10.7751 163.072 10.6986 162.654 10.7117C162.168 10.7133 161.689 10.8339 161.259 11.0629C160.801 11.2966 160.401 11.6299 160.089 12.0384C159.785 12.4223 159.563 12.8637 159.435 13.3359C159.293 14.2226 159.238 15.1211 159.269 16.0186V19.6378H157.991L158.04 9.80443Z" fill="#333333" stroke="#333333" stroke-miterlimit="10"/>
<path d="M6 21.7757L4.86118 22L4 21.4325L2 17.0343V9.27231L6 6V21.7757Z" fill="#B7DDC8"/>
<path d="M10 22H6V5.67867L10 3V22Z" fill="#FDF6CB"/>
<path d="M14 22H10V2L14 2.51866V22Z" fill="#FCE4CD"/>
<path d="M18 22H14V3L18 5.97363V22Z" fill="#F8CFDC"/>
<path d="M19.5529 22H18V6L22 9.02439V16.1122L20.2918 17.8049L19.5529 22Z" fill="#F3E0ED"/>
<path d="M11.5904 0C11.9607 0.147416 12.3156 0.333559 12.6497 0.555526C16.0469 3.47391 19.4351 6.40649 22.814 9.35336C23.1245 9.62399 23.024 9.65248 22.677 10.075C22.33 10.4976 21.6861 11.0247 21.3756 10.7588C18.0834 7.91003 15.8644 5.7687 12.5859 2.89621C12.3421 2.70234 12.0455 2.59382 11.7386 2.58614C11.4318 2.57846 11.1306 2.67205 10.8781 2.8535C8.04252 5.35565 7.68181 5.85419 4.84168 8.32785C4.38506 8.72667 2.78234 10.0181 2.3166 10.4074C2.0198 10.6543 1.2664 11.6419 0.161396 10.3457C-0.190196 9.9279 0.097488 9.61924 0.407985 9.3486L5.79147 4.68618C7.34852 3.33778 8.89643 1.97513 10.4672 0.650461C10.8218 0.398563 11.1978 0.180841 11.5904 0V0Z" fill="#040000"/>
<path d="M14 20.5872V21.9653C15.5118 21.9653 16.9758 22.0434 18.4239 21.9653C19.1719 21.8765 19.8601 21.5628 20.3682 21.0791C20.8763 20.5955 21.1718 19.9726 21.2034 19.3193C21.2246 19.0562 21.2246 18.7922 21.2034 18.5292C21.1475 18.2453 21.1873 17.9534 21.3181 17.6886C21.4489 17.4238 21.6651 17.1973 21.9407 17.0362C22.4729 16.5685 22.8107 15.9609 22.9009 15.3089C23.0369 14.708 23.0329 14.0896 22.889 13.49C22.745 12.8904 22.4641 12.3219 22.0627 11.8177C21.2246 10.7657 19.8031 10.7106 18.9597 11.758C18.4482 12.3995 18.1175 13.136 17.9941 13.9082C17.8707 14.6805 17.9579 15.467 18.2488 16.2047C18.3248 16.4869 18.5125 16.7373 18.7793 16.9122C20.0736 17.592 19.5644 18.6486 19.4795 19.549C19.4158 20.2105 18.7316 20.5826 17.8882 20.5872C16.6469 20.5872 15.3738 20.5872 14 20.5872Z" fill="#040000"/>
<path d="M4.68734 11.0985V15.6221H4.25536V11H3.82907V15.5799H3.50365C3.41389 14.0877 3.31853 12.5954 3.22877 11.1032H3.12783L2.85849 15.5658H2.58361C2.49946 14.1252 2.42095 12.6846 2.33681 11.244H2.26387L2.02262 15.6409H1.71411C1.62996 14.1299 1.55139 12.6142 1.46724 11.0985H1.32137C1.25966 12.281 1.19236 13.4448 1.13066 14.6461C1.14691 14.9879 1.12627 15.3303 1.06895 15.669C0.955832 15.9771 0.982598 16.3094 1.14408 16.602C1.30556 16.8947 1.59036 17.1272 1.94407 17.2551C2.05735 17.3245 2.15293 17.4122 2.22518 17.5129C2.29743 17.6136 2.3449 17.7254 2.36481 17.8417C2.38566 18.5228 2.44938 19.2027 2.5556 19.8782C2.72578 20.4926 3.14404 21.039 3.73984 21.4254C4.33564 21.8117 5.0725 22.0144 5.82617 21.9992C7.20061 21.9992 8.56947 21.9992 10 21.9992V20.5586H6.48817C4.63128 20.5586 4.13195 20.1457 4.12634 18.6206C4.08968 18.3776 4.08968 18.1317 4.12634 17.8886C4.24608 17.6258 4.39841 17.3741 4.58078 17.1378C4.82762 16.7483 5.29886 16.3635 5.29325 15.9787C5.29325 14.4161 5.11934 12.8535 5.00714 11.2862C4.98914 11.2178 4.96085 11.1516 4.92298 11.0891L4.68734 11.0985Z" fill="#040000"/>
<path d="M15.7227 16.1659C15.5171 15.7948 15.2057 15.498 14.8308 15.3158C14.4558 15.1336 14.0356 15.0748 13.6271 15.1473C13.2387 15.2017 13.8237 14.5194 12.1885 14.0794C11.9627 14.0131 11.7274 13.9881 11.4932 14.0052C11.2606 13.9883 11.0269 14.0133 10.8027 14.0794C9.17709 14.5194 9.76691 15.2017 9.3641 15.1473C8.9556 15.074 8.53511 15.1325 8.16006 15.3148C7.785 15.4971 7.47367 15.7943 7.26854 16.1659C6.30947 17.7282 8.22761 18.8703 8.22761 18.8703V22H14.7589V18.8703C14.7589 18.8703 16.7058 17.7282 15.7227 16.1659Z" fill="#040000"/>
</svg>
