<svg width="64" height="63" viewBox="0 0 64 63" fill="none" xmlns="http://www.w3.org/2000/svg">
<g filter="url(#filter0_d_360_1374)">
<circle cx="32.4277" cy="18.5" r="13.5" fill="white"/>
</g>
<path d="M36.6465 18.5C36.6465 19.6189 36.202 20.6919 35.4108 21.4831C34.6197 22.2743 33.5466 22.7187 32.4277 22.7187C31.3089 22.7187 30.2358 22.2743 29.4446 21.4831C28.6535 20.6919 28.209 19.6189 28.209 18.5C28.209 18.2595 28.2343 18.0247 28.2779 17.7969H26.8027V23.4177C26.8027 23.8086 27.1191 24.125 27.5101 24.125H37.3468C37.5342 24.1246 37.7137 24.0499 37.8461 23.9173C37.9784 23.7847 38.0527 23.605 38.0527 23.4177V17.7969H36.5776C36.6212 18.0247 36.6465 18.2595 36.6465 18.5ZM32.4277 21.3125C32.7972 21.3124 33.163 21.2396 33.5042 21.0981C33.8455 20.9566 34.1556 20.7493 34.4168 20.488C34.6779 20.2267 34.8851 19.9166 35.0264 19.5752C35.1677 19.2339 35.2403 18.868 35.2402 18.4986C35.2401 18.1292 35.1673 17.7634 35.0258 17.4221C34.8844 17.0808 34.6771 16.7707 34.4158 16.5096C34.1545 16.2484 33.8443 16.0413 33.5029 15.9C33.1616 15.7587 32.7958 15.686 32.4263 15.6861C31.6802 15.6863 30.9647 15.9828 30.4373 16.5106C29.9099 17.0383 29.6136 17.7539 29.6138 18.5C29.614 19.2461 29.9106 19.9616 30.4383 20.489C30.966 21.0165 31.6816 21.3127 32.4277 21.3125ZM35.8027 15.5469H37.4888C37.6008 15.5469 37.7083 15.5025 37.7876 15.4234C37.867 15.3443 37.9117 15.237 37.9121 15.125V13.4389C37.9121 13.3266 37.8675 13.219 37.7881 13.1396C37.7088 13.0602 37.6011 13.0156 37.4888 13.0156H35.8027C35.6905 13.0156 35.5828 13.0602 35.5034 13.1396C35.424 13.219 35.3795 13.3266 35.3795 13.4389V15.125C35.3809 15.357 35.5707 15.5469 35.8027 15.5469ZM32.4277 5C28.8473 5 25.4135 6.42232 22.8818 8.95406C20.3501 11.4858 18.9277 14.9196 18.9277 18.5C18.9277 22.0804 20.3501 25.5142 22.8818 28.0459C25.4135 30.5777 28.8473 32 32.4277 32C34.2006 32 35.9561 31.6508 37.594 30.9724C39.2319 30.2939 40.7201 29.2995 41.9737 28.0459C43.2273 26.7924 44.2217 25.3041 44.9001 23.6662C45.5785 22.0283 45.9277 20.2728 45.9277 18.5C45.9277 16.7272 45.5785 14.9717 44.9001 13.3338C44.2217 11.6959 43.2273 10.2076 41.9737 8.95406C40.7201 7.70047 39.2319 6.70606 37.594 6.02763C35.9561 5.34919 34.2006 5 32.4277 5ZM39.459 23.9689C39.459 24.8281 38.7559 25.5313 37.8966 25.5313H26.9588C26.0996 25.5313 25.3965 24.8281 25.3965 23.9689V13.0311C25.3965 12.1719 26.0996 11.4687 26.9588 11.4687H37.8966C38.7559 11.4687 39.459 12.1719 39.459 13.0311V23.9689Z" fill="#80A687"/>
<defs>
<filter id="filter0_d_360_1374" x="0.927734" y="0" width="63" height="63" filterUnits="userSpaceOnUse" color-interpolation-filters="sRGB">
<feFlood flood-opacity="0" result="BackgroundImageFix"/>
<feColorMatrix in="SourceAlpha" type="matrix" values="0 0 0 0 0 0 0 0 0 0 0 0 0 0 0 0 0 0 127 0" result="hardAlpha"/>
<feOffset dy="13"/>
<feGaussianBlur stdDeviation="9"/>
<feColorMatrix type="matrix" values="0 0 0 0 0.0658854 0 0 0 0 0.0730469 0 0 0 0 0.1375 0 0 0 0.08 0"/>
<feBlend mode="normal" in2="BackgroundImageFix" result="effect1_dropShadow_360_1374"/>
<feBlend mode="normal" in="SourceGraphic" in2="effect1_dropShadow_360_1374" result="shape"/>
</filter>
</defs>
</svg>
