<svg width="12" height="16" viewBox="0 0 12 16" fill="none" xmlns="http://www.w3.org/2000/svg"><path fill-rule="evenodd" clip-rule="evenodd" d="M2.5 7h-1a.5.5 0 00-.5.5v7a.5.5 0 00.5.5h9a.5.5 0 00.5-.5v-7a.5.5 0 00-.5-.5h-8zM2 6V4c0-2.206 1.795-4 4-4 2.207 0 4 1.794 4 4v2h.5c.827 0 1.5.673 1.5 1.5v7c0 .827-.673 1.5-1.5 1.5h-9C.673 16 0 15.327 0 14.5v-7C0 6.673.673 6 1.5 6H2zm7 0V4c0-1.654-1.345-3-3-3-1.653 0-3 1.346-3 3v2h6zm-3.5 5.415c-.582-.206-1-.762-1-1.414 0-.827.673-1.5 1.5-1.5a1.502 1.502 0 01.5 2.915v1.555c0 .292-.225.529-.5.529-.277 0-.5-.237-.5-.53v-1.555zM6 9.626a.376.376 0 10.001.751.376.376 0 00-.001-.75z" fill="#F4F4F4"/></svg>