<svg width="64" height="63" viewBox="0 0 64 63" fill="none" xmlns="http://www.w3.org/2000/svg">
<g filter="url(#filter0_d_360_1371)">
<circle cx="31.9638" cy="18.5" r="13.5" fill="white"/>
</g>
<path d="M31.9639 5C24.5079 5 18.4639 11.0441 18.4639 18.5C18.4639 25.9559 24.5079 32 31.9639 32C39.4198 32 45.4639 25.9559 45.4639 18.5C45.4639 11.0441 39.4198 5 31.9639 5ZM37.4553 16.0587C37.4609 16.1741 37.4623 16.2894 37.4623 16.4019C37.4623 19.9175 34.789 23.9689 29.8981 23.9689C28.4529 23.9713 27.0377 23.5562 25.8228 22.7736C26.0295 22.7989 26.2418 22.8088 26.457 22.8088C27.7029 22.8088 28.849 22.3855 29.7589 21.6711C29.2044 21.6602 28.6672 21.4766 28.222 21.1459C27.7768 20.8152 27.4459 20.3538 27.2754 19.8261C27.6736 19.9018 28.0838 19.8859 28.475 19.7797C27.8732 19.658 27.332 19.3319 26.9431 18.8567C26.5543 18.3815 26.3418 17.7865 26.3417 17.1725V17.1402C26.7003 17.3384 27.1109 17.4594 27.5468 17.4734C26.9826 17.0979 26.5833 16.5209 26.4303 15.8607C26.2774 15.2004 26.3825 14.5066 26.7242 13.9212C27.3921 14.7425 28.225 15.4143 29.169 15.8932C30.1131 16.3722 31.1471 16.6475 32.2043 16.7014C32.0699 16.1309 32.1278 15.532 32.3689 14.9977C32.61 14.4635 33.0208 14.0239 33.5376 13.7472C34.0543 13.4706 34.6479 13.3724 35.2262 13.468C35.8045 13.5635 36.335 13.8475 36.7353 14.2756C37.3304 14.1579 37.901 13.9396 38.4228 13.6302C38.2244 14.2463 37.8092 14.7695 37.2542 15.1025C37.7813 15.039 38.296 14.8973 38.7814 14.682C38.4249 15.2163 37.9758 15.6825 37.4553 16.0587V16.0587Z" fill="#80A687"/>
<defs>
<filter id="filter0_d_360_1371" x="0.463867" y="0" width="63" height="63" filterUnits="userSpaceOnUse" color-interpolation-filters="sRGB">
<feFlood flood-opacity="0" result="BackgroundImageFix"/>
<feColorMatrix in="SourceAlpha" type="matrix" values="0 0 0 0 0 0 0 0 0 0 0 0 0 0 0 0 0 0 127 0" result="hardAlpha"/>
<feOffset dy="13"/>
<feGaussianBlur stdDeviation="9"/>
<feColorMatrix type="matrix" values="0 0 0 0 0.0658854 0 0 0 0 0.0730469 0 0 0 0 0.1375 0 0 0 0.08 0"/>
<feBlend mode="normal" in2="BackgroundImageFix" result="effect1_dropShadow_360_1371"/>
<feBlend mode="normal" in="SourceGraphic" in2="effect1_dropShadow_360_1371" result="shape"/>
</filter>
</defs>
</svg>
