<svg width="12" height="12" viewBox="0 0 12 12" fill="none" xmlns="http://www.w3.org/2000/svg">
<path d="M8.79236 0.5C8.22375 0.5001 7.66542 0.65202 7.17469 0.940162C6.68396 1.2283 6.27852 1.64228 6 2.13959C5.72142 1.64216 5.31585 1.22811 4.82497 0.93996C4.33409 0.651812 3.77559 0.499958 3.20684 0.5C2.33579 0.547194 1.51641 0.929453 0.919144 1.56726C0.321878 2.20507 -0.00728722 3.04932 0.000122434 3.92439C0.000122434 8.38678 6 11.5 6 11.5C6 11.5 11.9999 8.38837 11.9999 3.92439C12.0073 3.04918 11.678 2.20482 11.0806 1.567C10.4831 0.929168 9.66355 0.546995 8.79236 0.5V0.5Z" fill="#FE724C" fill-opacity="0.3"/>
</svg>
